<!--

░░░░░░░░░░░░░░░░░░░░░░░░░░░░░░░░░░░░░░░░░░░░░░░░░░░░░░░░░░░░░░░░░░░░░░
░░░░░░░░░░░░░░░░░░░░░░░░░░░░░░░░░░░░░░░░░░░░░░░░░░░░░░░░░░░░░░░░░░░░░░
░░░░░░░░░░░░░░░░░░░░ https://about.me/jamesfurey ░░░░░░░░░░░░░░░░░░░░░
░░░░░░░░░░░░░░░░░░░░░░░░░░░░░░░░░░░░░░░░░░░░░░░░░░░░░░░░░░░░░░░░░░░░░░
░░░░░░░░░░░░░░░░░░░░░░░░░░░░░░░░░░░░░░░░░░░░░░░░░░░░░░░░░░░░░░░░░░░░░░
░░░░░░░░░░░░░░░░░░░░░░░░░░░░░▄████████▄▒░░░░░░░░░░░░░░░░░░░░░░░░░░░░░░
░░░░░░░░░░░░░░░░░░░░░░░░░░▄██████▀▀▀▀▀███▄▒░░░░░░░░░░░░░░░░░░░░░░░░░░░
░░░░░░░░░░░░░░░░░░░░░░░░▄██▀             ▀██▒░░░░░░░░░░░░░░░░░░░░░░░░░
░░░░░░░░░░░░░░░░░░░░░░▄█▀                   ▀█▄▄░░░░░░░░░░░░░░░░░░░░░░
░░░░░░░░░░░░░░░░░░░░▄█▀ ▒▀                     ██░░░░░░░░░░░░░░░░░░░░░
░░░░░░░░░░░░░░░░░░░▄█▒▒▒▒░                      ██░░░░░░░░░░░░░░░░░░░░
░░░░░░░░░░░░░░░░░░▐█▌▒▒▄██████▒     ▐▒████▓▄     █▌░░░░░░░░░░░░░░░░░░░
░░░░░░░░░░░░░░░░░░██▒▄███▀█████▒                 ▓█▒░░░░░░░░░░░░░░░░░░
░░░░░░░░░░░░░░░░░▐██▒██▒▄▓▀▀█████    ▒██▀▀▀██    ▐█▒░░░░░░░░░░░░░░░░░░
░░░░░░░░░░░░░░░░░▐██▒▀▒█▌▄█▓▄█▓██   ▐▐█ ▓▄▓▄▀▌    █▌░░░░░░░░░░░░░░░░░░
░░░░░░░░░░░░░░░░░▐██▐░░▓█▓▓▀▀▓██▌      ▀▀▀▄       █▌░░░░░░░░░░░░░░░░░░
░░░░░░░░░░░░░░░░░░██▒▒▒ ▀▀▀ ▐▐██░                ▐█░░░░░░░░░░░░░░░░░░░
░░░░░░░░░░░░░░░░░░▐▌▒▄▒    ▄███▒        ▄        ▐  ░░░░░░░░░░░░░░░░░░
░░░░░░░░░░░░░░░░░░▐█▒▒▒░  ▐▀████▄  ▄▄▄   ▀▒         ░░░░░░░░░░░░░░░░░░
░░░░░░░░░░░░░░░░░░▐█▒▒▒  ▐▒███████▄░      ▀▓        ▐░░░░░░░░░░░░░░░░░
░░░░░░░░░░░░░░░░░░▐█▒░▒   ▀▒▄██▄▄▄▄▄▄▄▄▄▄▄ ▐▌    ▐▐▒░░░░░░░░░░░░░░░░░░
░░░░░░░░░░░░░░░░░░░▐█▒▒░   ▀██▀ ▀      ██▀        ▒░░░░░░░░░░░░░░░░░░░
░░░░░░░░░░░░░░░░░░░░█▌▒▒    ░███▓▄▄▄▓█▀▀         ▐░░░░░░░░░░░░░░░░░░░░
░░░░░░░░░░░░░░░░░░░░░██▒▒▄▓▒▒▒░░ ▀▀             ▒▐░░░░░░░░░░░░░░░░░░░░
░░░░░░░░░░░░░░░░░░░░░░███▄▄▒▒▒▒▒▒▒▒           ▄ ▄░░░░░░░░░░░░░░░░░░░░░
░░░░░░░░░░░░░░░░░░░░░░▓████▒▓██▒▒           ▄  ▒░░░░░░░░░░░░░░░░░░░░░░
░░░░░░░░░░░░░░░░░░░░░░▓▒░████▓▀▒▀ ░      ▓█▀   ▀▒░▒▒▄▄▒░░░░░░░░░░░░░░░
░░░░░░░░░░░░░░░░░▒▒▓▒▀█▒▒▒▒████▄▄▒▒▒▒▄▓█▀      ▓▓▓▓▓▓▓▓▓▒░░░░░░░░░░░░░
░░░░░░░░░░░░░░▒▓▓▓▓▓▓▓█▒▒▒░▀▀▀▀▀▀▀▀▀           █▒▓▓▓▓▓▓▓▓▓▓▒▄░░░░░░░░░
░░░░░░░░░░░▓▓▓▓▓▓▓▓▓▓▓█▒▒▒▒▒▒▒▒▒▒▒▒           ▐█▓▓▓▓▓▓▓▓▓▓▓▓▓▓▓▓▓▄▒░░░
░░░░░▄▓▓▓▓▓▓▓▓▓▓▓▓▓▓▓▓▒█▒▒▒▒▒▒▒▒▒▒▒▒          █▒▓▓▓▓▓▓▓▓▓▓▓▓▓▓▓▓▓▓▓▓▒░
░░▓▓▓▓▓▓▓▓▓▓▓▓▓▓▓▓▓▓▓▓▓▓█▒▒▒▒▒▒▒▒▒▒▒▒      ▄▄██▓▓▓▓▓▓▓▓▓▓▓▓▓▓▓▓▓▓▓▓▓▓▒
▓▓▓▓▓▓▓▓▓▓▓▓▓▓▓▓▓▓▓▓▓▓▓▓▓▓▒▓▓▒▓▓▓▓▓▓▓▒▒  ▀▓███▓▓▓▓▓▓▓▓▓▓▓▓▓▓▓▓▓▓▓▓▓▓▓▓

-->
<svg xmlns="http://www.w3.org/2000/svg" viewBox="0 90 490 105" style="background-color:#ff0c9a">
  <g id="EYES">
    <path id="EYES BKG" fill="#fff" d="M159 103h162v84H159z"/>
    <g id="LEFT EYE">
      <path fill-rule="evenodd" d="M195 155.4c-1.7-12.2-22.1-9.6-20.6 3.5 8.1 13.3 23.9 5.6 20.6-3.5Z"/>
      <path fill="#2b9cfa" fill-rule="evenodd" d="M183.4 150.9c10.2 0 5.3 5.8 8 8-1.4 2-5-1.5-4.4-4.4-1.5 2.1-4.2 3-7.2 3.5 1-2.6 4.5-2.6 3.6-7.1Z"/>
    </g>
    <g id="RIGHT EYE">
      <path fill-rule="evenodd" d="M302 157.2c3.6-17.3-31.6-13.7-18.6 4.3 0 0 12.6 7.8 18.5-4.3Z"/>
      <path fill="#2b9cfa" fill-rule="evenodd" d="M285.6 159c-8-8.1 10.4-15.9 11.6-2.7-.2-3-10.6-3.9-12.5 0 2.6 1.4 6.1 2 1.8 3.5"/>
    </g>
    <animateTransform attributeType="XML" attributeName="transform" type="translate" values="0;0;0;-8;-8;-8;-8;0;0;0;0;0;8,-8;8,-8;8,-8;0;0;0;0;0;0;0;-8,-8;-8,-8;0;0;0;8;8;0;0;0;0;0;0;0,6;0,6;0,6;0;0;0" repeatCount="indefinite" dur="15s"/>
  </g>
  <g id="OUTER SHADOW" fill="#c72c7c">
    <path d="M395.1 362.7c-1.7-10.3-8.9-15.8-17.1-16.2-5.1-.3-10 3.5-15.3 3.6-2.7 0-6-2.5-9-2.7-8.6-.8-14.6 2-19.9-1-16.9-18.8 14.4-34.4 17.1-53.1.7-4.7-1.3-9.1-.9-13.6.4-3.2 2.7-7 3.6-10.8 1.4-5.7 1-12.8 2.7-16.2 3.1-6.2 10.3-9.3 13.6-14.4-.8-11.3-2.1-22-3.6-32.5-.6 12.3 2.3 21.1 2.7 32.5a9.9 9.9 0 0 1-6.4 3.6c-1.6 4.4-6.1 5.8-7.2 10.8-1.1 10.9-4.8 19.2-8 28 3.1.2-3.3 2.4 0 2.6 6.3 2.6.3 18.2-5.5 27-3.5 5.5-11.3 10.7-13.5 17.2-3.2 9.3.1 21 12.6 22.6 6 .7 11.1-3.2 15.3-1 9.5 4.2 19.9-3.8 28.9 0 5.8 2.6 6.2 8 10 15.4 2 2.3 6.4 2.5 8 5.4 2.6 2.9 7.7 3.1 9 7.2 2.2.6 4.2 1.3 7.3 1-6.8-3-16.5-10.6-24.4-15.4ZM363.6 130c-.4 2.2 1.6 2 .9 4.6 1.8 6.1 2.7 25-2.7 29.7-.3 5.7.7 12.8-1 17.1 4.4 5 3.1 15.6 5.5 22.6.3-12.8-4.5-24.9-2.7-37.9 1.6-12.4 8-25.7 0-36ZM151.1 313.3l.5 1.5-.5-1.5Zm2.8 17.7-.2-4c.3 14.5-3 32.6-6.5 36.6 1.7-.4 2.2-2 4.5-1.8l.6-4.4v-.3l.5-4.2v-.4l.5-4v-.4l.6-8.6V331Zm-.3-4.5Zm0 0v.6-.6ZM339.2 68.7c3.3 3.7 7.3 6.6 7.2 13.6a321 321 0 0 1 14.5 44.1c2-.2 1 2.6 2.7 2.7-7.4-16.6-9.2-37.5-17.2-54-6-12.6-18.8-20.2-28.8-29.8-6.4-6.1-12.1-11.7-19.9-17.1-11.6-8.3-34.1-24.6-47.7-27-42.7-7.9-61.1 26.5-88.4 45.9-.8 1.6-.3 4.5-1.8 5.4-8.5 2.3-10.2 11.3-14.4 18-2.2 3.5-4.6 6.5-7 9.6l5.4-5.6 1.1-1.3.3-.3 1-1.5c5.3-8 5.5-16.5 15.4-17.1v-.9c-.3-6.3 4.8-7.3 8-10 13.6-9.6 25.5-30 44.3-36.9a60.9 60.9 0 0 1 64 11.7c4-.3 10.7 4.4 14.4 7.2 5.2 2.7 9.3 6.4 13.5 10 4 3.5 11.6 8.2 11.8 12.6 1.6-.2 2.4 2 4.5 3.6-.8-3 7.7 6.1 9.9 9 4 1 5.5 4.8 7.2 8.1ZM138.4 80.1zm-13.8 122.1c1.7 14.2-2.7 30.8 1 45 1 4 5 6.9 6.2 10.9 4 13.6 4.2 30.4 10 42.4 2.5 5.4 7 8.8 9.3 12.8l-1.3-3.4-.1-.2-.6-1.2-.2-.4-.8-1.3a58 58 0 0 1-8.1-16.2 143.5 143.5 0 0 1-7.3-35.2c-11.6-10-3.9-32.4-6.3-52.3-1.3-11-5.6-20.1-6.3-30.6-.6-8.8-3.7-20.2-1.8-32.5a175.5 175.5 0 0 1 1.2-7l.5-2.7.2-1 .7-3.1.1-.5c3.2-14.8 8.2-30.6 14.3-41.3-1.6 2.4-3.1 5-4.3 7.8a158 158 0 0 0-11.8 91c1.2 6.3 4.7 12.2 5.4 19ZM83.2 387h.9c6.5-6.8 13.6-9.9 22.5-16.2 12.7-9 23.9-13.6 37.9-6.3.7-.2 1.7 0 1.8-1-26.8-12.4-46.8 11.6-63.1 23.5Z"/>
    <path d="M157 64.2c-15.7 13.1-20.8 36.8-25.2 61.3 7-14 12.3-29.7 19-44.1 1.7-6.1 4.1-11.5 6.3-17.2Zm-4.4 9c-5 9.8-7.5 22-14.4 29.8 1.6-13 6.2-23.2 14.4-29.7Zm6.3 253.4c-4.4 7.6-.6 23.4-4.5 31.6 7.7-6.3 2-20.5 5.4-30.7 0-.5-.1-1-1-.9Z"/>
  </g>
  <g id="PINK AREAS">
    <path fill="#ff0c9a" d="M138 103c7-8 10-20 15-30-9 7-13 17-15 30Z"/>
  </g>
  <g id="LIGHT GREEN" fill="#0f0">
    <path d="M473.7 420c-6.4-6.8-19.5-22.4-28.5-27.4-9.6-5.4-11-10.7-25.7-14.6-3.1.4-5-.4-7.2-.9h-1a56 56 0 0 0-13.5-7.2c0-.9 1.1-.7 1.8-.9-9.4-5.6-8.7-22.6-27-19.8-3.3.5-3.6 1.7-8.1 3.6-4.4-.5-7-2.6-12.6-1.8-9 1.9-11.5 10.2-14.5 18-1.6 23-8 41.3-12.6 61.3-3.9 4.6-5.2 11.8-8.7 16.7h174c-1.8-1.8-5-15-16.4-27Zm-124.6-23c.9 9.8-5.2 20.6-7.2 30.6-.4-9.4 4.8-21 7.2-30.7Zm-.6-40.7Zm3.3-1.7Zm36.3 18.3.7-.3a12.1 12.1 0 0 1 5.6 2c-1.6-1-3.4-1.7-5.6-2-.3 0-.5.2-.7.3Zm-27.2 17.9c0-2.1 0-4.2-.8-5.5.8 1.3.8 3.4.8 5.5Zm14.4 8h-2.7l-.4 1.6c-.5 1.6-1.2 2.8-1.5 4.6.3-1.8 1-3 1.5-4.6l.4-1.7h2.7v2.6-2.6Zm10.3-22.6-.4.9.4-.9ZM174.2 433c1-2 2.4-3.7 1.8-7.2 0-9.4-6.8-16.5-14.4-15.3 3.4 8.3 6.5 16.9 11.7 23.4-.2-.8.4-.8 1-.9Z"/>
    <path d="M174.2 438.4v-1.8c-9.5-5.5-11.7-18.3-17.1-28-3 .7-3.7-5.8-1.8-7.1-2.3-9.2-5-17.9-4.5-29.8-2.8-1.8-4.3-4.7-8.1-5.4-3.7-4.3-14.2-6-19.9-3.6a664.1 664.1 0 0 0-37 17.6 35 35 0 0 0-4.6 2.6l-2.7 1.6c-2.9 1.1-6.4 3.8-15.3 9.7l-5.5 3.6c-12.4 7.9-15.3 12.7-30.7 22.6C11.6 430.3 0 447 0 447h181.3c-1.4-3.8-3-7.4-7-8.6Zm0 1c2.3.7 3.5 2.4 4.5 4.4-1.1-1.9-2.7-3.9-4.5-4.5Z"/>
  </g>
  <g id="DARK GREEN" fill="#18cc16">
    <path d="M358.6 355.1a18 18 0 0 0-6.8-.5l-.2.9c0 .9.3 1.5 1 2a3.6 3.6 0 0 0 .8.5l.7.2a9.8 9.8 0 0 0 7-.9l.4-.4.3-.5a14.8 14.8 0 0 0-3.2-1.3Zm13.1 4.9c-2-.2-4-1-5.7-.8a3 3 0 0 0-2.4 1.7h.6c1-.1 2 .2 3 .4 2 .6 3.8 1 4.5-1.3Zm-10.8 19c-.2-4.7-1.4-8.3-4.6-10l.1 1.7c.2 2.8.9 5.1 2.4 6.7.5.6 1.2 1.1 2 1.5Zm9.5-6.7-.5-1.5c-.8 3.1-1.7 6.1-4.5 2.7 1.1 4.8 2 10 4.5 13.5-.3-3 .1-6.2.5-9l.2-3v-1l-.2-1.7Zm-43.8 37.3c2.4-9.3 6.3-17.2 7.2-28-5.3 6.5-6.8 16.6-8.1 27-.2.8.3 1 .9 1Zm32.9-25-.5-.3-.2 1.4-.3 1.4-.1 1.5v2.2c0 .7.2 1.3.5 1.8l.8 1c.3.3.7.5 1.1.6-.2-3.4.8-8-1.3-9.6ZM387 387c.5 2.4-2.7 5.6 0 7.2 2-1.5 4.7-6.5 0-7.2ZM79.5 400.6c3.6-.7 6.6-2 8.2-4.6-4.8-.5-7.7.8-8.2 4.6Zm293.1-1.9c-.3 2.5-1.5 4-1.9 6.3v2.8c3.5.3 4.4-2 4.6-4.9v-4.2h-2.7Zm-272.3 10.9c3.4-1 4.9-4.2 5.4-8.2-3.9.7-5 4-5.4 8.2Zm37.9 15.3c1.3-5.5 1.9-16.6-1.8-19.8.7 6.4-1.9 16.2 1.7 19.8Zm36 8.1c1-2 2.4-3.7 1.8-7.2 0-9.4-6.8-16.5-14.4-15.3 3.4 8.3 6.5 16.9 11.7 23.4-.2-.8.4-.8 1-.9Zm225.5-16.5c-.2-1-.5-1.8-1-2.4a3 3 0 0 0-1.8 1.3 2 2 0 0 0-.3 1v.7l.4 1.2c.6 1.7 1.7 3.5.8 4.8-2.4.7-1.8-1.8-3.6-1.8.4 1.7 0 2.6-.4 3.5-.3.5-.5 1.1-.5 1.9h6.3l-.1-2.4.3-6.2c0-.5 0-1-.2-1.6Zm-257-.6c.1 4 1 7.4 3.6 9-1-3.2-.3-8.2-3.6-9Zm31.5 22.5v1c2.3.7 3.5 2.4 4.5 4.4l1.7 3.2h.9c-1.4-3.8-3-7.4-7-8.6Z"/>
    <path d="M397.8 369.9c0-.9 1.1-.7 1.8-1-9.4-5.5-8.7-22.5-27-19.7-3.3.4-3.6 1.6-8.1 3.6-4.4-.5-7-2.7-12.7-1.8-8.9 1.9-11.4 10.2-14.4 18-1.7 23-8 41.3-12.6 61.3 10.6-20.4 9-52.8 19.8-73 8.8 12.3 6.5 26.3 2.8 40l-1.2 4.7-1.3 4.5a205.7 205.7 0 0 0-3.2 13.4 56.8 56.8 0 0 0-.6 6.5v2c5.7-3.7 5.8-13.4 8-21.6a450.2 450.2 0 0 0 3-11.5l.6-3 .6-3.5.3-2a75.4 75.4 0 0 0 .6-11.6c-.1-1.9-.3-3.7-.6-5.5a34.4 34.4 0 0 0-6.3-15.1c19-5.6 32.1 6 46.3 14.7l2 1.1a55 55 0 0 0 15.7 6.7c-4-2.9-8.5-5.3-13.5-7.2ZM342 427.6c-.4-9.4 4.8-21 7.2-30.7.9 9.9-5.2 20.7-7.2 30.7ZM61.5 405c-5 5-10.6 9.3-17.1 12.7 8.6-1.3 12.3-7.5 17.1-12.6Z"/>
    <path d="m398.7 379.8-.7-1.4a11.7 11.7 0 0 0-9.2-5.8c-.3 0-.5.2-.7.3-.9.5-1.4 1.3-1.9 2.2l-1 2a6.5 6.5 0 0 1 4.4-1.4c1.8 0 3.6.8 5.3 1.7a41 41 0 0 1 3.8 2.4ZM122 371.7c6-.5 10.6-2.5 12.5-7.2-6.4.2-11.2 2-12.6 7.2Z"/>
    <path d="M174.2 436.6c-9.5-5.5-11.7-18.3-17.1-28-3 .7-3.7-5.8-1.8-7.1-2.3-9.2-5-17.9-4.5-29.8-2.8-1.8-4.3-4.7-8.1-5.4 0-1.2 1.6-.8 1.8-1.8-12.7-6.5-23-3.4-34.2 3.8-9.2 4.3-19.1 9-24.5 12-.3 0-4 2.3-7.3 4.3-3.3 1.2-7.7 4.7-20.8 13.2 8.3-2.6 21.3-12.1 30-14.2l-.2.2a34 34 0 0 0-3.4 3.2l2.3-1.3-2.3 4c6.7-.3 5.6-5 9-7.2 5.5-6.2 19.6-3.8 23.4-11.7-1.3-.5-4.6 1-4.5-1 7.3-3.8 17.6-10.7 27-4.4-7 6.7-8.1 26.4-3.5 37 .5-13.4.3-27.4 5.4-36.1 12.4 5.6 9.8 26.3 12.6 41.5 8.7 8 8.9 24.7 20.7 29.7v-.9Z"/>
  </g>
  <g id="SKIN" fill="#ffdcbc">
    <path d="M353.6 369.7Zm-1.8-15.1Zm-.7 6.6Zm-176.9 78.1c1.8.6 3.4 2.6 4.5 4.5-1-2-2.2-3.7-4.5-4.5ZM343.3 76.5a44 44 0 0 0-2.7-4.7c1.2 2.6 2.5 5 3.9 7.3l-1.2-2.6Zm-64.1-57ZM157 408.7c.3-3.3-1.6-4.4-1.7-7.2-1.9 1.3-1.3 7.8 1.8 7.2Zm21.7-92c-1.6 5-8.8 4.4-11.7 8.1 5.8 4.1 14.7-1.3 11.7-8.1Z"/>
    <path d="M395.1 364.5c-3.7-7.3-4-12.8-9.9-15.3-9-4-19.4 4.1-28.9 0-6.4-1.7-11.5 1.8-11.5 1.8l-4.9.3c-2 0-4.9-.2-7.8-1.9l-.5-.2-.4-.5c-12.3-13.8-2.7-26.3 5.8-37.2 4.7-6.2 9.6-12.5 10.5-18.8.3-1.9 0-4-.4-6l-.2-1.8c.4-.3.5-.8.4-1.6-3.2-.2 3.2-2.4 0-2.7l-.8 1.3.1-2.5a25 25 0 0 1 2-6.8c.7-1.5 1.3-3 1.7-4.5l.3-1.6.3.6c.4-3 1.2-7 .9-10.3.3-2.1.7-4 1.4-5.6 1.3-.6 2.6-1 2.2 1.5 1-5 5.6-6.5 7.3-10.9-3.3.7-2.6 5.3-6.4 5.4h-.4c1.7-2.1 3.8-4 5.8-5.5 1.8-1.5 3.5-3 4.6-4.5-.8-11.6-2.3-22.6-3.4-31V204a89.8 89.8 0 0 0-2-19.1v-2.5c-1.5 4.9-7.8 5-7.3 11.7-1.2 2.8-.9 7-.9 10.9-2.5-.2.8 5.5-1.8 5.4V205c6.5-57.7 2.5-124.7-34.2-148-2 .6-8-2.8-9-6.2-2 1.2-6-1.5-6.3-4.5 1.4-.3 1.5.8 2.7.9-.4-1.1-1.2-1.9-2.8-1.8-2.7 2-6.4-2.5-9-3.6 1 0 1.1-.8 1.8-1 .2-.7-.3-.8-.9-.8-3 .6-12.3-5-12.6-7.2-7.8-4-16.1-7.3-27-8.2H247l-2.4.1a273.1 273.1 0 0 0-3.4.1l-2.7.1h-.6l-2.9.2h-.1l-2.8.2h-.5l-2.8.3h-.6l-2.8.3h-.3l-2.7.4h-.4l-2.8.5h-.5l-2.7.5-.4.1a93.3 93.3 0 0 0-5.3 1.2l-.5.1-2.4.7-.4.2-2.3.7h-.1l-2.3 1-.4.1-2 1-.4.2-2 1c1.8.2 2-1 3.7-.9 2.4-.2 3.9.4 3.6 2.7-3.7 5.5-15 4.4-20.7 5.5-11.5 5.4-18.9 14.8-27 23.4-2.2 5.6-4.6 11-6.4 17.1-6.6 14.4-12 30.2-19 44.2-3.6 10.8 1 23.6 0 37v27c-2.5-.1.8 5.6-1.7 5.4a24.3 24.3 0 0 0-5.4-13.5c3.9 17.4 3.7 37.4 4.5 55.9v.9c1 12.9 10.4 17.2 9 32.5.3 3.1 2.4-3.2 2.7 0 0 14.7 8.2 21.2 11.7 32.4-.5-3.2.3-5 2.7-5.4-.7 6.7 2.1 10 4.5 13.5a6.3 6.3 0 0 1 4.5-4.5c-1 2.3-3.6 3-3.6 6.3a38 38 0 0 0 19.9 2.7c3.2 7.6 2.9 18.7 8 24.4.3-3.2 4 1.6 3.7-1-1.1-.3-1.9-1-1.8-2.6 4.2.2 7.8 0 9.9-1.8.6-3-1.2-8.4.9-10-.2 7 8.9-1.7 10 6.4-4.7 1-2 9.4-6.4 10.8-1-1.4-1.1-3.7-2.7-4.5-1 1.3-3.4 1.3-4.5 2.7-.7 6.7 4.7 7.3 4.5 13.5 11.6 11.1 31.2 17.2 52.3 14.4 27-3.5 50.4-25.8 63.1-42.4 1.3 7.9-5.1 8.1-7.2 12.7-4.3 2.9-6.6 7.8-10.8 10.8a79.6 79.6 0 0 1-69.8 23.1h-.1l-2.1-.3h-.2l-2-.4-4.9-.8h-.1l-2.2-.4h-.2l-2.1-.3h-.3l-2-.3h-.4l-.7-.1h-1.2l-.6-.1h-5.8a15.6 15.6 0 0 0-1.2.2h-.6l-.5.1-.7.2h-.5l-.6.2-.5.1-.6.2-.5.2-.6.2-.4.1-.7.3-.4.2-.7.3-.3.2-1 .5c9.4 6 21.3-.6 31.5 2.7-18.7 1.3-46.1 11.3-42.3-12.6 4.8 2.5 11.1 12.7 16.2 4.5-20-6.8-27-26.6-40.6-39.6-3.4 10.2 2.3 24.4-5.4 30.6a113.8 113.8 0 0 0 6.3 52.3h1c7.5-1.2 14.4 6 14.4 15.3.5 3.6-.8 5.3-1.8 7.3-.6 0-1.1 0-1 .9 0 1.2.5 2 1 2.7v1.8c4 1.1 5.6 4.7 7 8.5h119c9.7-11.2 22.6-20.3 26.3-37.4-.5 0-1-.1-.9-.9 1.3-10.4 2.9-20.6 8.1-27 1.4-7.5 2.7-16.9 0-23.5.4-4.5 1.3 1.9 2.7 1.8-.6 4 1.6 5 1 9 3-7.8 5.5-16 14.4-18 5.6-.8 8.2 1.3 12.6 1.8 4.5-2 4.8-3.1 8.1-3.6 18.4-2.8 17.7 14.2 27 19.8.9.7 2 1 3.7 1-1.7-3-6-3.1-8.1-5.5ZM190.4 161.4A34.7 34.7 0 0 1 175 160c-6.2-2.4-9-7.2-7-11.9 5.2-14 34.4-10.8 34.7 5.3 0 1.9 3.1 5.5-12.3 8Zm14.5 186c-1.1-3 5.3-6 9-7.3.4 5.9-6.8 4-9 7.3ZM297 160c-16.6 2.1-26.7-3.8-22.5-13.3 6-13.6 34.5-10.8 34.8 5.3 0 1.9.6 5.8-12.3 8Z"/>
    <path d="M198.6 376.2c-7.3-.6-8-7.6-13.6-10 .4 7 7 12.3 13.6 10Zm6.3-16.2c-3.4-1.1-5.6-3.5-8.1-5.4-.7 4.6 6 6.6 8 5.4ZM311.3 52.5c-.8-1.3-1.4-2.8-3.7-2.7v1c2.5-.7 1.9 1.7 3.7 1.7Z"/>
  </g>
  <g id="WHITE AREAS" fill="#fcf9f9">
    <path d="M255.4 137.3c3-.7 2.1-5 3.6-7.2-1-.8-2.4-1.2-4.5-1 .7 2.3 1.1 4.9.9 8.2ZM314 46.2c3.8-.1-9-11-6.3-7.2 1.2 3.2 2.6 6.4 6.3 7.2Zm-2.7 6.3c-1.8 0-1.2-2.4-3.7-1.8 1.2 3.4 7 6.9 9 6.3-1.4-1.8-2.4-4.2-5.3-4.5Z"/>
    <path d="M304 47.1c-1.1 0-1.2-1.2-2.6-.9.4 3 4.4 5.8 6.3 4.5v-.9c-.8-1.3-1.4-2.8-3.6-2.7Zm-142.4 6.3c4.5-1.5 6-6 8.1-9.9-3.3 2.7-8.4 3.6-8.1 10Zm131.6-13.5c-3.6-3-7.4-5.8-12.6-7.2.3 2.1 9.6 7.8 12.6 7.2Zm.9.9c-.7.2-.9.9-1.8.9 2.5 1.1 6.3 5.7 9 3.6-1.6-2.3-4.4-3.4-7.2-4.5Zm-92.8-8.1c-1.7-.1-2 1-3.6.9a29 29 0 0 0-13.6 7.2c5.7-1 17 0 20.8-5.4.2-2.4-1.3-3-3.6-2.7Zm104.6 4.5c1-.2.5-1 0-1.8-4.3-3.6-8.4-7.3-13.6-10-4.1-2.1-1.3 1 0 2.8 4.4 3.1 7.5 7.6 13.6 9ZM322 51.6a13 13 0 0 0 10 9c-2.2-2.9-10.7-12-10-9Zm42.5 83c.7-2.6-1.3-2.4-1-4.5v-1c-1.6 0-.6-3-2.6-2.6-.6 6.2 1.6 9.7 2.7 14.4l.4-.2c1.3-.9 0-4.4.5-6.1ZM248.2 255.4c-3.3-.6-4.4 1-6.4 1.8a12.8 12.8 0 0 0-2.7 6.3c-.4 5.5 1 8.9 0 12.6 2.7 2.3 13.6 3.4 10 6.3h3.6c3.9.3 6-1.2 7.2-3.6-5 .2-8-1.7-10.8-3.6 4.6-.4 11.2 1 14.4-.9-.2-.8.3-.8.9-.9 4-3.9 7.1-8.5 8.1-15.3-3.4-5.6-16.6-1.4-24.3-2.7Zm6.3 12.6c-2.4-1.6-2-6-2.7-9 5.2.2 3 5 2.7 9Zm10.8 0c-2-2.6-2.4-9.8 2.7-10-.3 4-2.4 6.1-2.7 10Z"/>
    <path d="M226.5 259c-3.5.7-1.7 6.7-4.5 8.1v-2.7c-1.7-1.3-1-5-4.5-4.5-3.8-1-1.6 3.8-3.6 4.5-.4 6.5-2.6-2.4-3.6-3.6-1.2-.3-1.5-1.6-2.7-1.8-4.4 4.3.2 12.2 4.5 13.5h.9c7.3.8 13.8 2.4 20.7 3.6 5.8-.1 4.9-8 3.6-12.6-.9-3.9-5.8-7.6-10.8-4.5Zm-79.3 104.6h-1c0 .9-1 .7-1.7.9-.3 1-1.8.6-1.8 1.8 3.8.6 5.3 3.6 8 5.4-.6-4.3 1-6.2 1-10-2.3 0-2.8 1.5-4.5 1.9ZM310.4 157v.1c0 4.5 6.5-4.7 2.7-6.3-.2.7 0 1.8-1 1.8.1 1.2-.3 1.9-.7 2.5a7 7 0 0 1-1 1.9Z"/>
  </g>
  <g id="SKIN SHADOWS" fill="#aa937f">
    <path d="M241 117.4c0-4.6-.2-8.8-1.9-11.7.1 4.4-.6 9.7 1.8 11.7Zm30.6 83.9c-.1 6.8.5 14.3-3.6 17.1h-8.1c.5 2.2 5.8-.4 5.4 2.7h-11.7c14.3 6.1 24.6-7.9 18-19.8Zm86.5 12.7c-1.1-.1-1.2-1.3-2.7-1 0 2.8-3.6 6.5-.8 9 1.6-2.2 4.5-3.2 3.6-8Zm-85.6 14.3c-6.6-1.6-8.7 3.5-6.3 8.1 3-1.1 6.3 2 7.2 0-1.6-1.4-7-3.7-5.4-5.4 4.8-.9 6.8 5.8 9.9 3.6-2-1.9-4.5-3.2-5.4-6.3Zm22.5 14.5c.2-.7.8-1 1.8-1 2.1-9.4-5.3-14.8-10.8-9 3 .7 4.7 2.5 5.4 5.4-2.7 0-3-2.3-5.4-2.7 1.2 4.3 4.8 6 9 7.3Zm-51.4 9h23.5a61.6 61.6 0 0 0-23.5 0Zm85.7 55.9c-.6-3.9-1.5-7.6-3.6-10 .9 3.7.7 8.3 3.6 10ZM204.9 360c-3.4-1.1-5.6-3.5-8.1-5.4-.7 4.6 6 6.6 8 5.4Zm76.6 11.7c-1.8 2-4.7 3.1-9 2.7 1.5 5.1 11.5.7 9-2.7Zm-2.7 26.1c-3.4 3.4-9.5 4.1-13.5 4.5 4.1 4.7 15.9 0 13.5-4.5ZM262.6 414c.2-7.1-2.3-11.5-5.4-15.3a20.9 20.9 0 0 0 5.4 15.4Zm46-2.6c0 5.1-6.5 8.5-4.6 12.6 2.3-2.9 8-7 4.6-12.6Zm49.5-219.1c1.9-1.6.6-3.7 2.7-1v-9c-1.4 4.9-7.7 5-7.2 11.8.8-2 3.7-7.6 4.5-1.8Zm-7.1 27c-.7-6 2.4-8.3 1.7-14.4-2.5-.2.8 5.5-1.8 5.4v-5.4c-1.6 2.2-1.3 15.1 0 14.4ZM201.3 32.7c1.7-1.6 4.7-2 7.2-2.7-1 1.3-1 2.2.9 2.7 4-3.4 18 1.6 21.6-3.6-1-.2-2.5.1-2.7-1 5.3.3 14-1.6 19.9 0-2.4.7-5.7.5-7.2 1.9 5 .7 12.6 2 15.3-1.8-7.6-1.5-5.4.3-11.6-3.6a273.1 273.1 0 0 0-3.4.1l-2.7.1h-.6l-2.8.2h-.2l-2.8.2h-.5l-2.8.3h-.5l-2.9.4h-.3c-1 0-1.8.2-2.7.3h-.4l-2.7.5h-.6l-2.7.6h-.3a93.3 93.3 0 0 0-5.4 1.2l-.5.2-2.4.7h-.4l-2.3.9h-.1l-2.2.9-.5.2-2 .9-.3.2-2 1c1.7.3 2-1 3.6-.8Zm48.6-8.1h-2.3 2.3ZM175 160l2.5.8-2.5-.8Z"/>
    <path d="m347.3 280.6-.8 1.3c-6.3 10.3-8.9 24.6-18.1 32-2.7-.8-2-5-5.4-5.3 4.1 5.6-1.3 11.7-3.6 16.2A30 30 0 0 0 304 314c3.5 5 10.7 6.1 10.9 14.4-5.7 4.6-9.5 11-15.4 15.4 2.7-2.9 3.7-8.2 1-11.8 2.9.5 4.1-.6 6.2-.9.1-2.8-5-5.1-6.3-3.6-9.6 7.6-10.9 25.8-30.6 26.2-4-1.4-4.4-6.5-7.2-9-1 5 2.7 9.7 0 13.5-3-1.3-4.6-3.8-5.5-7.2-.2-3.6 3.3-3.4 2.7-7.3-5.9 0-6.7 8.2-8 10-.2-2-3.9-.4-5.5-1 .7-2.7-.9-3.2-.9-5.3 5.3-2.9 6.8-9.5 13.5-10.9 3 1.6 2.9 6.2 6.4 7.3-.8-3 3-1.3 2.7-3.7-4.8.3-4.7-4.3-7.3-6.3-9.2-1.6-23-4.4-24.3 6.3 4 1.8 7.8 3.6 8.1 9-2-.9-2.9-3-6.3-2.6-3.8.7-4.2 4.8-8 5.4-4.6 0-7.4-1.8-9.1-4.5 4.9-.5 7.8-3 11.7-4.5-2.1 1.1-2.6 4-3.6 6.3 3.6-1 5-4 7.2-6.3-5.5-1.5-3.7-10.1-7.2-13.6 6.6-2.4 16 1 20.7 0-16.5-5.9 5.3-20.8 10.9-27-4.5-.2-6.9 1.6-11.8.9-1.3 1.4.8 4.5 0 8-6.5-12.3-36.4-6.2-39.6-18.8l11.7-1.8c-14.9.5-17.6-9.7-24.4-18-4.1-5.2-11.7-10.4-9-16.3 10.2-6.3 30.6-2.5 46-3.6-5.5-2.7-14.2-2-18-6.3 11.2-7.7 31.3 8.1 32.4-13.5 3.7 1 .4 6.8 1.8 8 2.3.2 4.4.2 5.4-.8.6-6-3.2-7.6-5.4-10.9 1.4 0 3-2.4 0-1.8-3 .5-4.8 2.5-8 2.7-3.7-3.3-5.3-8.5-8.2-12.6-24.5-1.8-10.7-19.3-6.3-35.1 2.2-7.8 1.3-14.4 4.5-19-4.5 1.6-2.9 9.2-6.3 11.8 4-16.1 8.5-32.6 1.8-47.8-1.7-3.9-6.1-6.6-7.2-10.9-2.4-9-3.2-13-9-17-9.4-3-15.2-1.9-26.2-1-2.8-1 .5-2.6-2.7-2.7-3.7-1-7.4 2.8-9.9 0 1.8-2.1 6-6.7.9-8 3.2-.9 6.8-5.8 4.5-9.1-1.5 1.8-3 3.6-6.3 3.6-3-2.2-3.4-9.2.9-10.8 3.5 1.4.9 4.3 3.6 5.4 5.6-7.7 1.5-21.2 13.5-23.5-8.4-.9-10.4 4.7-16.2 6.4 3.7-7.2 11.7-10 16.2-16.3-21 7.1-22.6 28.2-38.7 37.9-6.7 14.4-12 30.2-19 44.2-3.7 10.7 1 23.6 0 37 1.5-3.4 1.2-8.5 1.8-12.7 3.2 12.6.2 30.4 0 45.1-3.2.9-1.2-3.5-1.8-5.4-2.5-.2.8 5.6-1.8 5.4a24.3 24.3 0 0 0-5.4-13.5c4 17.4 3.7 37.4 4.5 55.9v-12.6c2.9-.5.7 4 2.7 4.5-1-9.3-.7-19.7-1.8-28.9 5 13.4 5.4 32.5 4.5 46.9-4.6 2.5-2-10-2.7-14.4-2.2.5.5 5.8-2.7 5.4 1 12.8 10.5 17.2 9 32.4.3 3.2 2.5-3.1 2.8 0 0 14.8 8.2 21.3 11.7 32.5-.6-3.2.3-5 2.7-5.4a175 175 0 0 0 4 28.4c-2.2 12.3.5 28.3-5 32-2.6 19 1.3 37.3 6.2 51.6l1 .7c7.7-1.2 14.5 6 14.5 15.3 1.4 7 4.4 14 8.1 20.8-3.1-4.7-8.4-7.2-9.9-13.6-.5 0-1 .2-.9 1 0 1.2.4 2 1 2.6v1.8c4 1.2 5.6 4.8 7 8.6h88.6c.4-1.7 2.1-8.5 4.4-12.2-5.5-1.5-9.1 3.5-12.6 1 2.9-3.7 9.4-2.8 10.8-3.7-2.6-.1-2.9-2.4-8.1-1.8-2.8 1.5-3.2 5.2-6.3 6.3 6-8.3.8-18.5-7.2-24.3 4.2-5.6.5-14.4-2.7-18-1.3 3.4 2.3 6.5 0 8-4-3 .3-16.6-3.6-15.3-2.5-5.1 3.7-8.6 7.2-10.8-.6-1.2-3.5-.1-3.6-1.8 23-2.5 42.2-8.9 51.3-25.2a8 8 0 0 0 .2-4.3c7.2-6.4 13.2-13.2 17.9-19.2 1.2 7.9-5.2 8.1-7.2 12.6 9-7.2 15.4-17 23.4-25.2-1 .4-8.3 7.6-4.5 3.6 6.4-6.9 13.2-26.4 17.1-31.6.2 0 .3 0 .5-.2.4-.3.5-.8.4-1.6-3.1-.2 3.2-2.4 0-2.7ZM172.4 62.4c.2-.7-.3-.8-.9-.9-.4-2.5 3.4 2.3 3.6-.9 2.7.6-.8 2 0 3.6-2.5-.7-2.3 1.3-4.5 1-.5-2 1.7-1.3 1.8-2.8ZM131.8 131c-.3-2.2 1.7-2 1-4.6 2.2 8.3.2 17.8-1 4.5Zm83 187.5c3.2.4 5 2.3 7.2 3.6-1 1-8 .2-7.2-3.6Zm10-9c2.8 3.7 2.5 10.6 7.1 12.6.1-7-4.7-9-6.3-14.4 4.6 1.7 7.1 5.5 7.2 11.7 2.5-.9 2-4.6 2.7-7.2 2.2-.6 4.1-1.3 7.2-1-5 2.8-3 9-8 12.7-5.5-.2-5.8-.5-11 0-2.8-1.3 3.6-.6 3.7-1.8-1.5-7.6-10.4-16.1-17.1-12.6-1.1-7.2 10.6-1.4 14.4 0Zm-57.8-183c7.6-3.5 20.2-1.8 24.3 3.6-8-2-17.7 5-27.9 6.3 1.8-4.4 4-5 3.6-10Zm-19 142.4c-3.5-10.1-6.7-21.2-2.6-31.6 3.6 2.6-1.5 7.6 0 13.6 5.2 2.5 3.4 14.5 2.7 18Zm3.7-60.4c1.2-5.1 4.1-8.5 4.5-14.4-8.3-3-9.2 7-15.3 9 1.9-5.3 6.6-12.6 12.6-10.8 8.6-9 22.5-5.1 36-1.8-.2-4.9-4.3-6-9-6.3 2.3-2.9 7-3.3 10-5.5-.5-.7-1-1.4-1-2.7-1.4-2-18 2.6-13.5-1.8-15.4.7-16.1-13.2-33.3-10.8a4 4 0 0 1 2-1.9c.7-.4 1.6-.7 2.5-1h.7c1.7-.4 3.4-.7 4.7-1.6 1-.6 1.5-1.6 2.1-2.5l.2-.3a4.8 4.8 0 0 1 1.2-1.3l.8-.3a4 4 0 0 1 1.1-.1c-.3-30.4 51.7-27.4 55-2.7-2.3-.7-4.1-2-5.7-3.4l-1.6-1.5c-2-2.1-3.7-4.3-6.2-6a4.8 4.8 0 0 0 1 2.2l1.1 1.6c2.5 2.9 6.4 6.2 7.8 9.8-3.6 7.5-14.7 9.4-21 9.4-16.1 2.6-21.8-5.3-25-3 .4-.5.6-1 .9-1.6l.7-2.8.7-6.4a12 12 0 0 1 1.3-4.6c-.4.2-.8.5-1 .8a5.8 5.8 0 0 0-1.4 2c-.4 1-.6 2-.8 3-.6 3.3-.7 7.1-2.2 9.5-2.9-.1-3 2.4-6.3 1.8 4 3 11.8 2 13.5 7.2a42.2 42.2 0 0 0 12.7-.2 45 45 0 0 0 7.7-2.4l5.1-2 1-.5 2.1-.7a49.5 49.5 0 0 1 9.3-2.3 8 8 0 0 1-2 3.3c-2 2-5 3.5-8.4 4.7l-5 1.4-2 .6a152.8 152.8 0 0 0-8.8 2.7c7.3.4 14.2-3.7 19.9-1.8-1.2 4.4-4.2 7.2-6.3 10.8.6 3.5 1.9 6.5 2.7 9.9-5.4 8.1-13.3 13.8-19 21.6 1.5 16.2-10.5 22.7-8 37 3.2-1 4-4.4 4.4-8.1 2 .1.4 3.8 1 5.4 5.1-3.1 6.6 5.4 11.7 1.8-4 6.2 1.4 15.6 6.3 20.7 0 3-3.8 5.3-2.7 11.8-5.5 2.6-8.8 7.4-14.5 9.9-2 2.2 1.1 9.5-3.6 9 .7-4.5-1.5-13.3-6.3-15.3a15 15 0 0 1-4.5 10.8c6.6-20.6-13-57.1 0-79.3.5-5-2.7-6.4-2.7-10.9-1.8 0-1.1 2.5-3.6 1.8-.8 3.8 1.8 4.3 1.8 7.2a19 19 0 0 1-5.4-8Zm17.1-28.9c-1.8 3.6-9.5 4-13.5 2.7-1-2.3 2.8-3.8-.9-3.6 2-3.2 13.5-2.6 14.4 1Zm-12.6-4.5c1-3.3 8.4-1.6 10.8-.9-1.4 3.9-6.3-.5-10.8 1Zm30.7-9.9c-4.6 4.2-15.9 2.2-20.8-.9 4.7-1 12.8 2.3 20.8 1Zm3.6 155c-.5-3.6-.5-9.3-1-15.2 2.2 5 3.2 10 1 15.3Zm-19.9 88.5c4 2.5 7.2 6.8 8.1 14.4-2.7-6.4-6.5-6.6-8-14.4Zm32.5 33.3c-.6-3.9.8-5.8 2.7-7.2.7.5 1.4 1 2.7.9.6 2.4-1.9 1.7-2.7 2.7a10 10 0 0 0 4.5 5.4c-2.2 2.7-5.6-1-7.2-1.8Zm18-62.2c4.3.7 5.8-1.4 10-.9-2.8 3.2 5 1.7 4.4 5.4-4.7 1.8-12.8-.2-14.4-4.5Zm9 11.7V387c3.9 1.3 9.7.6 10 5.4-3.2-.4-6-1.3-10-.9Zm126.3-144.2h-.5c-3.6-.5-3.3-4.8-4-8.1-2.1 2-.4 8-1 11.7.1 1.3 1.3.8 2.4.3 1.2-.5 2.5-1 2.2 1.5 1-5 5.6-6.4 7.2-10.8-3.3.6-2.6 5.2-6.3 5.4Zm-99.2-132.6h-.2s.1.1.2 0Z"/>
    <path d="M257 114.6c-.4-1-.4-6 2-5.3v9c20.4-3 45.9-7.5 64-2.7-4.3-4.6-15.5-4.4-19-7.2 2-1.7 5.6-1.6 6.4-4.5-8.8-.8-28.5-13-42.4-12.6-14.7.4-20.9 17.5-11 23.3Zm7.4-11.6c1.3 2 .8 9.8-1.8 10.8.4-3.3.3-6.6 1.8-10.8Zm-7.2 55c.5-4.9-.4-11.2 4.5-11.7-.4 1.8-2.2 6.7 0 8.1.8-3 2.8-5 5.4-6.3-2.6 1.9-2.1 7-5.4 8.1 3.3 7 9.7 11 18 13.2a21.3 21.3 0 0 1-2.9-1.2l-.7-.3-.4-.3-.7-.3-.4-.3-.6-.4-.4-.3-.7-.5-.3-.2-.9-.8-.8-.8-.3-.3-.5-.6-.3-.3-.4-.6-.3-.3-.4-.6-.2-.4-.3-.6-.3-.3c0-.3-.2-.5-.3-.7l-.1-.3-.4-1a9 9 0 0 1-.3-1l-.1-.4-.2-.7v-.4l-.1-.6v-2.6a8.8 8.8 0 0 1 .2-1c0-.4.2-.7.3-1l.4-1.2.2-.3a15.1 15.1 0 0 1 1-1.7l.2-.4.5-.7.3-.4.5-.6.4-.4.7-.6c0-.2.2-.3.3-.4l1.1-1c-4 1.4-5.7 5.1-9.9 6.4 6.6-12 11.9-25.5 34.3-21.7-3.6-2-11.1-.3-16.2-.9.2-1.2 1.4-1.5 1.8-2.7-9.7-2.5-22.5 3.8-22.6 10.9 1.3-4.5 8.8-7.4 11.7-7.2-10.4 2.9-24 19.5-14.4 30.6Zm46.8-28.8c5.7 4 13 6.2 14.5 14.4-5.6-4-10.6-13.4-19.9-10.8a29 29 0 0 1 21.7 22.5 112 112 0 0 0-10-9.7l.4.8.4 1c4.8 3.8 6.3 11.1 14.6 11.5-.8-4-5-4.7-5.4-9 2.2-11-8-17.3-16.2-20.7Zm2.8 125.3c0 5.4-4.2 6.6-4.6 11.7 8-3.7 12-15.4 10-25.3-.7-3-6.4-10.9-8.1-18.9-1-4.8-16.3-20.2-17.2-20.7a16.4 16.4 0 0 0-11.7-1.8c1 10 9.5 12.4 14.4 18 7.7 8.7 10.3 19.2 17.2 28.9-1.6-11.7-10.2-16.4-12.7-27 8.1 8.8 21 20 14.5 37.8-1.5 0-.5-2.5-1.8-2.7ZM259 218.4c-7.1-3-19.5.9-19 5.4 3.4 2.5 8.4-1.2 10.9-2.7-3.1-.4-5 .4-7.2 1 1.4-4.9 9.1-3.5 15.3-3.7Zm-21.7 45.1c.2-3.8.6-.2 1.8 0a14 14 0 0 1 2.7-6.3c-4.3 3.2-12.5-3-15.3 1.8 5-3 10 .6 10.8 4.5Zm-15.3.9c.2-4-2-5.8-6.3-5.4-.8 1.6-2.5 2.3-1.8 5.4 2-.7-.2-5.6 3.6-4.5 3.4-.4 2.8 3.2 4.5 4.5Zm-10 8.1c-4.2-1.3-8.8-9.2-4.4-13.5 1.3.2 1.5 1.5 2.7 1.8v-1c-1.4-.1-.7-1.9 0-2.6-10 .9-6.1 15.4 1.8 15.3Zm15.4 9c-1.8-2.4-6.2-2.2-7.2-5.4 1.6-.2 4.5 2.6 5.4 0-1.9-3.5-7.8-.2-10-1.8 2.4 4 7 5.7 11.8 7.2Zm48.7-22.5c-1.3 1.1-.4 4.4-2.7 4.5 1.3 7.6-4.3 8.3-9 10-.6 0-1 0-1 .8 8.3-.5 16.8-8.2 12.7-15.3Zm-3.6-1h.9c-2.3-6.4-19-3.2-25.3-2.6 7.7 1.3 21-3 24.4 2.7Zm-7.2 10c.3-3.9 2.4-6 2.7-10-5.1.2-4.8 7.4-2.7 10Zm-10.8 0c.2-4 2.4-8.8-2.7-9 .8 3 .3 7.4 2.7 9Zm79.3 90.2c.4-4.6 1.3 1.8 2.7 1.8-.8-3.5-2.7-5.8-3.6-9-2.2 1.3-.3 6.2.9 7.2Zm-8.1 50.5c-1.2 5.4-4 9.2-6.3 13.5-1.1-.4-1.9-1.2-1.8-2.7-3.7 7.4-14.2 8-21.7 11.7 0-3 1.6-4.5 1-8.1-4.7 6.9-7 16-10.7 23.9h14.1c9.7-11.2 22.6-20.4 26.3-37.4-.6 0-1-.2-.9-1Zm69.4-44.2c-3.7-7.3-4-12.8-9.9-15.3-9-4-19.4 4.1-28.9 0 .5 2.5-4.9-.8-4.5 1.8 5.7-.9 8.3 1.3 12.7 1.8 4.5-2 4.8-3.2 8-3.7 18.4-2.7 17.7 14.3 27.1 19.9.8.7 2 1 3.6.9-1.6-3-6-3.1-8-5.4ZM249 387c1.3 1.5 2.6 2.9 3.7 4.5 4.3-.3 10 2.7 13.5 0-7 .8-15.8-5.6-17.1-4.5Zm102.8-130.2a6.5 6.5 0 0 0-1.8-4.1c.6 4.2-1 10.6.6 13.8l.3.6c.3-3 1.2-7 .9-10.3Zm-79 190.2h9.8c-2.5-1.4-7.9-2.3-9.8 0ZM185 366.3c.4 6.8 7 12.2 13.6 9.9-7.3-.6-8-7.6-13.6-10Zm125-208.9c.2 0 .3-.2.4-.3h-.1l-.2.3Z"/>
    <path d="M309 158.4a24 24 0 0 1-11.5 4.1h-.1a46 46 0 0 1-13.1-.3 27.5 27.5 0 0 1-3.8-1.2c-1.7-.7-3.2-1.5-4.5-2.5-2 .2-4-.8-6.2-.5a46.8 46.8 0 0 0 37 10.8c-8-1.9-19.9-1.5-23.7-5.4 9.1 2 20.4-.2 26-5Z"/>
  </g>
  <g id="LIP">
    <path fill="#dda97a" d="M280.6 277c-8 6.8-19.7 5.2-28.8 11.7-.2 2 3.2.5 4.5 1-2 3.1-5.6 4.9-9.8 5.7 10-1.5 33.3-7 39.4-24.2a34.4 34.4 0 0 1-5.3 5.8Z"/>
    <path fill="#a97e5d" d="M210.3 280.6c-1 4.3 10 4.4 10.8 10l-11.7 1.7c8.1 1.2 21.5 4.3 32.2 3.7h.2a34 34 0 0 0 4.6-.6c4.3-.8 7.8-2.6 9.9-5.7-1.3-.5-4.7 1-4.5-1 9-6.5 20.9-4.9 28.8-11.7 2-1.7 3.7-3.7 5.3-5.8 4.2-5.7 7.4-12.3 11.8-17.6-7-3-14-.8-23.4-1.8 6.2 2 15 1.2 19.8 4.5-11.4 26.1-51 37.8-83.8 24.3Z"/>
  </g>
  <g id="BLACK" fill="black">
    <path d="M290.5 97.6c-11.5-3.5-16.2 6.2-18 15.3 11.4 0 24.5 3.3 28.9-5.4-3.8-.4-8.4 0-10-2.7 4.3-.6 10.8 1.2 13.6-.9-4.4-1.6-10.5-1.6-15.4-2.7.5-1.8 2.7-1.8 1-3.6Zm-73.9 29.7c.2-7.7-1.2-13.8-5.4-17 1.7 5.7 1.1 13.8 5.4 17Zm-64.9 19.9c-.5 2-2.2 7.4 0 9 .7-3.4 3-6.5 0-9Zm4.5 27.9c4.5-1.4 9.4 3 10.8-.9-2.4-.7-9.9-2.4-10.8 1Zm204.7 16.3c-2.2-2.8-1-.7-2.7.9 1.1 5.4 1.4 11.8 4.5 15.3 0-6.1-2.3-9.7-1.8-16.2Zm-226.4 55.9a128 128 0 0 0-4.5-47c1 9.3.9 19.7 1.8 29v3.5c.7 4.5-2 17 2.7 14.5Zm119.1-26.2h11.7c.4-3.1-5-.5-5.4-2.7h-1c-6 .2-13.8-1.2-15.3 3.6 2.2-.5 4.2-1.3 7.3-.9h2.7Zm55 36.1c6.5-17.8-6.4-29-14.5-37.9 2.5 10.7 11.1 15.4 12.6 27v8.2c1.4.2.4 2.7 1.9 2.7ZM139 249c1.2-4.2 1.5-11-1.7-13.5-.2 5.3.1 10.1 1.7 13.6Zm100.1 14.5c-1.2-.2-1.6-3.8-1.8 0 1.3 4.6 2.2 12.5-3.6 12.6-.2 1.3-2.7.3-2.7 1.8 4.1.8 5.1-1.5 8.1-1.8 1-3.7-.4-7 0-12.6Zm0 101c2.5-.6 7.2 1.1 8.2-1-2.8-.6-7.4-3.7-8.2 1Zm-38.7 21.6c2.6 3.7 6 6.6 10.8 8.1-2.4-3.3-7-9.2-10.8-8ZM342 427.6c2-10 8-20.8 7.1-30.7-2.4 9.6-7.6 21.3-7.2 30.7Zm-114.6-19.8c7.1-2.1 13.6 4.8 16.2-1-4.5.5-13.6-3.4-16.2 1Zm35.2-307.5c-.7-3.1 4.5-5 6.3-2.7-1.3 4.7-3.1 9-3.6 14.4 5-2.7 8-7.6 8-15.3-3.6-2.1-14-.8-10.7 3.6Zm57.7 55a29 29 0 0 0-21.7-22.5c9.3-2.6 14.3 6.7 19.9 10.8-1.5-8.2-8.8-10.4-14.5-14.4-3.2.2-4.3-1.7-7.2-1.8-22.4-3.8-27.6 9.6-34.2 21.6 4.1-1.3 5.8-5 9.9-6.3l-1.1 1c-.2 0-.3.2-.4.3l-.7.6c0 .2-.2.3-.3.4l-.6.6c0 .2-.2.3-.3.4l-.5.7-.2.4a11 11 0 0 0-1 1.7l-.1.4-.4 1-.3 1-.1.4-.1.7v.4l-.1.7v1.5l.1.6v.4l.2.7.1.4.3 1 .4 1 .2.3.3.7.2.3.3.6.3.4.4.6.2.3.5.6.3.3.5.6.2.3.9.8.9.8.3.2a15.8 15.8 0 0 0 2.7 1.8l.5.3.7.3.4.3c.3 0 .5.2.8.3l.4.2 1.2.4a86.8 86.8 0 0 0 35.2.3c-3.7.7-4.6-1.4-8-.9a46.8 46.8 0 0 1-37-10.8c2.2-.3 4 .7 6.1.4a18 18 0 0 0 5.7 3 24.8 24.8 0 0 0 4 1 34.6 34.6 0 0 0 11.7.2h.1c6.4-1.2 10.4-2.7 12.5-5.1l.3-.4.1-.1a7 7 0 0 0 1.5-3.8v-1.3a14.8 14.8 0 0 0-1.2-5.5c0-.3-.2-.5-.3-.8 3.5 3.1 6.9 6.2 10 9.7ZM297 160c-16.6 2.1-26.7-3.8-22.5-13.3 6-13.6 34.5-10.8 34.8 5.3 0 1.9.6 5.8-12.3 8Z"/>
    <path d="M183.2 243.7c20.5-3.2 39.9-4 55 0 1.9-1.2 4.6-1.5 4.5-4.5-6.7.7-13.5-.3-20.7-1 .2-6.7 10-3.7 11.7-9 .2-5.5-6.3-4.4-9.9-6.3-4-3.8-6.5-9-10-13.5-.7-.4-7.1 2.6-8-.9 3.8-10.5 14-21.3 16.2-37 1.9-13 9.8-27 1.8-36-9.6-2.4-13.2-11-17.1-19 1.8-.3 4.5 5 4.5 1-2.2-6.3-1.1-15.8-8.1-17.2.3 3.3 3.5 3.6 2.7 8.1-9.4-6.5-15.5-6.3-28-4.5-16.2 2.3-25.6 8.8-30.6 21.6-3.5 8.7-2.3 19.7-4.5 28.9 12.7-9.6 9-31.2 29.7-33.4 3.3-.3 8.7 2.3 15.3 2.7 10.9.7 21.3-3.8 20.8 4.5-1.6-.7-8.8-.8-10 1.8 6.8 5.5 16.2 9.4 17.2 18 .5 5.2-3.3 6.8-5.4 13.6-2.6 8-.5 15.4-3.6 20.7-.3 2.9 2.6-2.3 2.7 1-2.6 17-22.5 16.5-24.4 34.2 4.6-.5 6-4.3 10-5.4 1 5 4 8 4.4 13.5-4 7-13.2 5.2-16.2 14.4 5.5-.1.6 2.2 0 3.6Zm19.9-18c1.6 6.3-7.7 9.7-11.8 13.5.2-4.7 10.7-6.8 11.8-13.6Zm143.3 59.4c-4 5.2-10.7 24.7-17.1 31.6-3.8 4 3.5-3.2 4.5-3.6 4.9-8.7 10.3-16.8 12.6-28Zm-48.7 52.3c-.6 3.3-5.4 7.2-4.5 9 1.8-2.2 8.5-6.7 4.5-9Zm-92.8 10c2.1-3.3 9.4-1.4 9-7.3-3.6 1.2-10.1 4.4-9 7.3Zm198.3 22.5c-1.5 0-2.8-.2-3.6-1-.7.3-1.8.1-1.8 1 5 1.9 9.5 4.3 13.5 7.2h1c-1.4-4-6.5-4.4-9-7.2Zm-66.7-9.9c-1.4 0-2.3-6.4-2.7-1.8 2.7 6.6 1.3 16 0 23.4-.9 10.8-4.7 18.7-7.2 28-3.7 17-16.6 26.2-26.3 37.4h15.8c3.5-5 4.8-12.1 8.7-16.7 4.6-20 11-38.3 12.6-61.3.7-4-1.5-5-.9-9Z"/>
    <path d="M184.1 362.7c-3.7 23.8 23.7 13.9 42.4 12.6-10.2-3.4-22.1 3.2-31.6-2.7a14.3 14.3 0 0 1 1.4-.7l.7-.4.4-.1.6-.3.5-.2.6-.2.5-.1.6-.2.5-.1.6-.2h.5l.6-.2h.5l.7-.2h.5l.6-.1h1.2l.5-.1h4.8l.7.1h.5l.7.1h.2l-12.9-2.5c-5 8.2-11.4-2-16.2-4.5Zm14.5 13.5c-6.5 2.3-13.2-3-13.6-10 5.6 2.4 6.3 9.4 13.6 10Z"/>
    <path d="M294.1 256.3c-4.7-3.4-13.6-2.6-19.8-4.5h-30.7c-2 1.6-6.6.6-9.9.9-15.4 1-35.8-2.8-46 3.6-2.7 6 4.9 11 9 16.2 6.8 8.4 9.6 18.6 24.4 18-.8-5.5-11.7-5.6-10.8-9.9 32.9 13.5 72.3 1.8 83.8-24.3Zm-30.6 18c-3.3 1.9-9.8.5-14.5 1 3 1.8 5.9 3.7 10.9 3.5-1.3 2.4-3.4 4-7.3 3.6a53 53 0 0 1-25.2-.9c-4.8-1.5-9.4-3.2-11.7-7.2-1.6 0-2.4-.7-2.7-1.8h-1c-7.8.1-11.7-14.4-1.7-15.3-.7.7-1.4 2.5 0 2.7v.9c1 1.2 3.2 10 3.6 3.6-.7-3.1 1-3.8 1.8-5.4 4.2-.4 6.5 1.3 6.3 5.4v2.7c2.8-1.4 1-7.4 4.5-8.1 2.8-4.7 11 1.4 15.3-1.8 2-.8 3.1-2.4 6.3-1.8 6.4-.6 23-3.8 25.3 2.7v5.4c2.3 0 1.4-3.4 2.7-4.5 4 7.1-4.4 14.8-12.6 15.3Z"/>
    <path d="M360.9 126.5a321 321 0 0 0-14.5-44.2l-2-3.2a82.7 82.7 0 0 1-5.2-10.3c-1.8-3.4-3.2-7-7.2-8.2a13 13 0 0 1-10-9c-2-1.6-2.8-3.8-4.4-3.6-1.7-.1-3-.6-3.7-1.8-3.7-.8-5-4-6.3-7.2-1-.2-1.4-1-1.8-1.8-6-1.4-9.1-5.9-13.5-9-2.4-3-6.2-4.4-9.6-6.3a22.5 22.5 0 0 1-4.8-3.6 60.9 60.9 0 0 0-64-11.7c-18.8 6.9-30.7 27.2-44.2 37-2.1 3.8-3.6 8.4-8.1 9.8v1c-10 .6-10.1 9.1-15.3 17l-1.1 1.5-.3.4-1.1 1.3-5.4 5.5a26.9 26.9 0 0 0-1.6 2l-.3.4-1 1.6-.3.3a160 160 0 0 0-14.2 41.3l-.1.5-.7 3.2-.2.9a142 142 0 0 0-1.1 6.2l-.6 3.5c-1.9 12.3 1.2 23.7 1.8 32.4.7 10.6 5 19.7 6.3 30.7 2.4 19.9-5.3 42.2 6.3 52.3 1.4 14 3.4 24 7.2 35.2a58.2 58.2 0 0 0 9 17.5l.1.4a34.2 34.2 0 0 1 2.6 6.3l.4 1.6.4 1.6v.1l.3 1.6v.1l.3 1.7a72.1 72.1 0 0 1 .8 9.5v8.5c0 2.8-.3 5.7-.5 8.6v.3l-.5 4.1v.5l-.5 4v.4l-.7 4.4c.1 3.7-1.5 5.6-.9 10-.5 11.8 2.3 20.5 4.5 29.7.2 2.8 2 4 1.8 7.2 5.5 9.6 7.7 22.4 17.2 28-.5-.8-1-1.5-1-2.8-5.1-6.5-8.3-15-11.6-23.4h-1c-5-14.5-9-33-6.3-52.3 4-8.2.1-24 4.6-31.6.7-.1.8.4.9 1 13.6 13 20.6 32.8 40.5 39.6l13 2.6h.1l2.1.2h.3l2.1.3h.2l2.2.4h.1l4.8.9 2 .3h.3a84.2 84.2 0 0 0 4.4.7 79.7 79.7 0 0 0 67.6-23.4c4.2-3 6.5-8 10.8-10.9 2-4.5 8.5-4.7 7.2-12.6-12.8 16.5-36.1 38.8-63 42.4-21.2 2.8-40.8-3.3-52.4-14.4.2-6.3-5.2-6.9-4.5-13.6 1-1.3 3.4-1.4 4.5-2.7 1.6.9 1.7 3.2 2.7 4.6 4.3-1.5 1.7-9.7 6.3-10.9-1-8-10.1.7-9.9-6.3-2 1.6-.3 7-.9 10-2.1 1.7-5.7 2-10 1.7 0 1.6.7 2.4 1.9 2.7.4 2.6-3.4-2.2-3.6 1-5.2-5.7-5-16.8-8.1-24.4a38.3 38.3 0 0 1-19.9-2.7c0-3.3 2.6-4 3.6-6.3a6.3 6.3 0 0 0-4.5 4.5c-2.4-3.6-5.2-6.8-4.5-13.5-2.4.3-3.2 2.2-2.7 5.4-3.5-11.2-11.7-17.7-11.7-32.5-.3-3.1-2.4 3.2-2.7 0 1.4-15.2-8-19.6-9-32.4v-1c-.8-18.4-.6-38.4-4.5-55.8 3 3.2 4.6 8 5.4 13.5 2.5.2-.8-5.6 1.8-5.4v-27c.9-13.4-3.7-26.3 0-37 4.3-24.6 9.4-48.3 25.2-61.3 8.3-8.6 15.6-18 27-23.5a29 29 0 0 1 13.6-7.2l2-1 .3-.3 2-.9.4-.2 2.3-.9h.1l2.3-.8h.4l2.4-.8.5-.1a62.8 62.8 0 0 1 5.4-1.2h.3l2.7-.6h.6l2.7-.5h.4l2.7-.4h.3a137.6 137.6 0 0 1 9.5-.8h.1l3-.2h.5l2.7-.1h.5l2.9-.1h8.9c10.9.7 19.2 4.1 27 8 5.2 1.5 9 4.3 12.6 7.2.6 0 1.1.2 1 1 2.7 1 5.5 2.2 7.1 4.4 1.6 0 2.4.7 2.7 1.8 2.3-.1 2.9 1.4 3.7 2.7 2.2-.1 2.8 1.4 3.6 2.7 3 .4 3.9 2.7 5.4 4.6 36.7 23.1 40.6 90.2 34.2 147.8v5.4c2.6.2-.7-5.5 1.8-5.4 0-3.9-.3-8 1-10.8-.6-6.8 5.7-6.9 7.1-11.7v-1c1.7-4.3.7-11.3 1-17 .4-5.7 1.5-10.6 1.8-16.3v-7.2c-1-4.7-3.3-8.2-2.8-14.4Zm-164.1 228c2.5 2 4.7 4.4 8 5.5-2.1 1.2-8.7-.8-8-5.4Zm-18-37.8c3 6.8-6 12.2-11.8 8.1 2.9-3.7 10-3.2 11.7-8.1Z"/>
    <path d="M176 174.2h4.5a56.8 56.8 0 0 1 5.8-1.8l1-.3 2-.5 2-.6 5-1.4c3.4-1.2 6.5-2.6 8.4-4.7a9 9 0 0 0 2-3.3 44 44 0 0 0-11.3 3l-1 .4-5.2 2.1a45 45 0 0 1-12.8 3h-4.5l-3.1-.4c-1.8-5.1-9.6-4.2-13.5-7.2 3.3.6 3.4-2 6.3-1.8 1.5-2.4 1.6-6.2 2.2-9.5a14.4 14.4 0 0 1 1.2-3.9 5.4 5.4 0 0 1 2-2c-.8 1.3-1.1 3-1.3 4.7l-.7 6.4c-.2 1-.4 2-.8 2.8-.2.6-.5 1-.8 1.5 3.2-2.2 8.8 5.7 24.9 3 6.4 0 17.5-1.9 21-9.3-1.3-3.6-5.2-7-7.7-9.8l-1.2-1.6-.8-1.4-.1-.7c2.4 1.5 4.3 3.8 6.2 5.9l1.6 1.5a14 14 0 0 0 5.7 3.4c-3.3-24.7-55.3-27.7-55 2.7a4 4 0 0 0-1 0 2.9 2.9 0 0 0-1.3.7l-.8 1-.2.3c-.6.9-1.1 1.9-2.1 2.5-1.4.9-3 1.2-4.7 1.5a14.4 14.4 0 0 0-3.3 1.1c-.8.4-1.5 1-2 2 17.2-2.5 18 11.4 33.4 10.7Zm-8-26.1c5.2-14 34.4-10.8 34.7 5.2 0 2 3.1 5.6-12.3 8A34.7 34.7 0 0 1 175 160c-6.2-2.4-9-7.2-7-11.9Z"/>
  </g>
</svg>
